<svg viewBox="0 0 80 80" fill="none" xmlns="http://www.w3.org/2000/svg">
  <!-- Hexagonal border — tech/precision -->
  <polygon points="40,3 71,21 71,59 40,77 9,59 9,21" stroke="#c8f135" stroke-width="1.5" fill="none" opacity="0.3"/>
  <!-- Outer mountain — the large V -->
  <polyline points="13,60 40,16 67,60" stroke="#c8f135" stroke-width="3.2" stroke-linecap="round" stroke-linejoin="round"/>
  <!-- Inner peak — ecosystem depth layer -->
  <polyline points="26,60 40,36 54,60" stroke="#c8f135" stroke-width="2" stroke-linecap="round" stroke-linejoin="round" opacity="0.55"/>
  <!-- Summit node — primary data point -->
  <circle cx="40" cy="16" r="4.5" fill="#c8f135"/>
  <!-- Base nodes -->
  <circle cx="13" cy="60" r="3" fill="#c8f135" opacity="0.7"/>
  <circle cx="67" cy="60" r="3" fill="#c8f135" opacity="0.7"/>
  <!-- Mid-peak node -->
  <circle cx="40" cy="36" r="2.5" fill="#c8f135" opacity="0.6"/>
  <!-- Constellation satellites -->
  <circle cx="28" cy="30" r="1.5" fill="#c8f135" opacity="0.38"/>
  <circle cx="52" cy="30" r="1.5" fill="#c8f135" opacity="0.38"/>
  <circle cx="23" cy="48" r="1.2" fill="#c8f135" opacity="0.3"/>
  <circle cx="57" cy="48" r="1.2" fill="#c8f135" opacity="0.3"/>
  <!-- Connecting data lines — faint network -->
  <line x1="40" y1="16" x2="28" y2="30" stroke="#c8f135" stroke-width="0.8" opacity="0.2"/>
  <line x1="40" y1="16" x2="52" y2="30" stroke="#c8f135" stroke-width="0.8" opacity="0.2"/>
  <line x1="40" y1="36" x2="23" y2="48" stroke="#c8f135" stroke-width="0.8" opacity="0.18"/>
  <line x1="40" y1="36" x2="57" y2="48" stroke="#c8f135" stroke-width="0.8" opacity="0.18"/>
</svg>
